<svg id="visual" viewBox="0 0 1200 600" width="1200" height="600" xmlns="http://www.w3.org/2000/svg" xmlns:xlink="http://www.w3.org/1999/xlink" version="1.1"><path d="M0 139L40 123C80 107 160 75 240 87C320 99 400 155 480 151C560 147 640 83 720 60C800 37 880 55 960 77C1040 99 1120 125 1160 138L1200 151L1200 0L1160 0C1120 0 1040 0 960 0C880 0 800 0 720 0C640 0 560 0 480 0C400 0 320 0 240 0C160 0 80 0 40 0L0 0Z" fill="#24c7c5"></path><path d="M0 523L40 514C80 505 160 487 240 488C320 489 400 509 480 496C560 483 640 437 720 428C800 419 880 447 960 473C1040 499 1120 523 1160 535L1200 547L1200 149L1160 136C1120 123 1040 97 960 75C880 53 800 35 720 58C640 81 560 145 480 149C400 153 320 97 240 85C160 73 80 105 40 121L0 137Z" fill="#a7e4e2"></path><path d="M0 601L40 601C80 601 160 601 240 601C320 601 400 601 480 601C560 601 640 601 720 601C800 601 880 601 960 601C1040 601 1120 601 1160 601L1200 601L1200 545L1160 533C1120 521 1040 497 960 471C880 445 800 417 720 426C640 435 560 481 480 494C400 507 320 487 240 486C160 485 80 503 40 512L0 521Z" fill="#ffffff"></path></svg>