<svg id="visual" viewBox="0 0 900 600" width="900" height="600" xmlns="http://www.w3.org/2000/svg" xmlns:xlink="http://www.w3.org/1999/xlink" version="1.1"><g stroke-width="1" stroke-linejoin="bevel"><path d="M503.3 337L493.3 241L404.7 224Z" fill="#cbefee" stroke="#cbefee"></path><path d="M404.7 224L403.7 375L503.3 337Z" fill="#ffffff" stroke="#ffffff"></path><path d="M404.7 224L261.1 359L403.7 375Z" fill="#94dedc" stroke="#94dedc"></path><path d="M267.1 463L409.7 482L403.7 375Z" fill="#eefaf9" stroke="#eefaf9"></path><path d="M403.7 375L505.3 492L503.3 337Z" fill="#ddf4f3" stroke="#ddf4f3"></path><path d="M666.9 253L533.3 133L493.3 241Z" fill="#4dcdcb" stroke="#4dcdcb"></path><path d="M493.3 241L533.3 133L404.7 224Z" fill="#ddf4f3" stroke="#ddf4f3"></path><path d="M533.3 133L408.7 104L404.7 224Z" fill="#7fd9d6" stroke="#7fd9d6"></path><path d="M404.7 224L246.1 222L261.1 359Z" fill="#cbefee" stroke="#cbefee"></path><path d="M264.1 97L246.1 222L404.7 224Z" fill="#94dedc" stroke="#94dedc"></path><path d="M409.7 482L505.3 492L403.7 375Z" fill="#24c7c5" stroke="#24c7c5"></path><path d="M503.3 337L666.9 253L493.3 241Z" fill="#4dcdcb" stroke="#4dcdcb"></path><path d="M505.3 492L650.9 351L503.3 337Z" fill="#68d3d1" stroke="#68d3d1"></path><path d="M650.9 351L666.9 253L503.3 337Z" fill="#7fd9d6" stroke="#7fd9d6"></path><path d="M129.6 375L267.1 463L261.1 359Z" fill="#ddf4f3" stroke="#ddf4f3"></path><path d="M261.1 359L267.1 463L403.7 375Z" fill="#24c7c5" stroke="#24c7c5"></path><path d="M408.7 104L264.1 97L404.7 224Z" fill="#4dcdcb" stroke="#4dcdcb"></path><path d="M505.3 492L638.9 490L650.9 351Z" fill="#ffffff" stroke="#ffffff"></path><path d="M776.4 344L769.4 259L666.9 253Z" fill="#4dcdcb" stroke="#4dcdcb"></path><path d="M666.9 253L647.9 96L533.3 133Z" fill="#68d3d1" stroke="#68d3d1"></path><path d="M527.3 0L377.7 0L408.7 104Z" fill="#cbefee" stroke="#cbefee"></path><path d="M408.7 104L377.7 0L264.1 97Z" fill="#cbefee" stroke="#cbefee"></path><path d="M527.3 0L408.7 104L533.3 133Z" fill="#24c7c5" stroke="#24c7c5"></path><path d="M647.9 96L527.3 0L533.3 133Z" fill="#a7e4e2" stroke="#a7e4e2"></path><path d="M267.1 463L375.7 600L409.7 482Z" fill="#94dedc" stroke="#94dedc"></path><path d="M409.7 482L504.3 600L505.3 492Z" fill="#24c7c5" stroke="#24c7c5"></path><path d="M505.3 492L504.3 600L638.9 490Z" fill="#ddf4f3" stroke="#ddf4f3"></path><path d="M375.7 600L504.3 600L409.7 482Z" fill="#a7e4e2" stroke="#a7e4e2"></path><path d="M109.6 128L126.6 245L246.1 222Z" fill="#7fd9d6" stroke="#7fd9d6"></path><path d="M246.1 222L126.6 245L261.1 359Z" fill="#cbefee" stroke="#cbefee"></path><path d="M126.6 245L129.6 375L261.1 359Z" fill="#24c7c5" stroke="#24c7c5"></path><path d="M267.1 463L243.1 600L375.7 600Z" fill="#7fd9d6" stroke="#7fd9d6"></path><path d="M776.4 344L666.9 253L650.9 351Z" fill="#ffffff" stroke="#ffffff"></path><path d="M666.9 253L776.4 97L647.9 96Z" fill="#ddf4f3" stroke="#ddf4f3"></path><path d="M774.4 465L776.4 344L650.9 351Z" fill="#ddf4f3" stroke="#ddf4f3"></path><path d="M377.7 0L262.1 0L264.1 97Z" fill="#eefaf9" stroke="#eefaf9"></path><path d="M264.1 97L109.6 128L246.1 222Z" fill="#94dedc" stroke="#94dedc"></path><path d="M129.6 375L135.6 473L267.1 463Z" fill="#7fd9d6" stroke="#7fd9d6"></path><path d="M135.6 473L243.1 600L267.1 463Z" fill="#ffffff" stroke="#ffffff"></path><path d="M747.4 0L647.9 0L647.9 96Z" fill="#4dcdcb" stroke="#4dcdcb"></path><path d="M647.9 96L647.9 0L527.3 0Z" fill="#cbefee" stroke="#cbefee"></path><path d="M115.6 0L109.6 128L264.1 97Z" fill="#baeae8" stroke="#baeae8"></path><path d="M126.6 245L0 250L129.6 375Z" fill="#eefaf9" stroke="#eefaf9"></path><path d="M0 465L125.6 600L135.6 473Z" fill="#94dedc" stroke="#94dedc"></path><path d="M504.3 600L643.9 600L638.9 490Z" fill="#ffffff" stroke="#ffffff"></path><path d="M638.9 490L774.4 465L650.9 351Z" fill="#baeae8" stroke="#baeae8"></path><path d="M774.4 600L774.4 465L638.9 490Z" fill="#cbefee" stroke="#cbefee"></path><path d="M769.4 259L776.4 97L666.9 253Z" fill="#7fd9d6" stroke="#7fd9d6"></path><path d="M900 227L776.4 97L769.4 259Z" fill="#ffffff" stroke="#ffffff"></path><path d="M776.4 97L747.4 0L647.9 96Z" fill="#baeae8" stroke="#baeae8"></path><path d="M0 465L135.6 473L129.6 375Z" fill="#eefaf9" stroke="#eefaf9"></path><path d="M135.6 473L125.6 600L243.1 600Z" fill="#baeae8" stroke="#baeae8"></path><path d="M262.1 0L115.6 0L264.1 97Z" fill="#baeae8" stroke="#baeae8"></path><path d="M0 124L0 250L109.6 128Z" fill="#cbefee" stroke="#cbefee"></path><path d="M109.6 128L0 250L126.6 245Z" fill="#68d3d1" stroke="#68d3d1"></path><path d="M0 250L0 374L129.6 375Z" fill="#7fd9d6" stroke="#7fd9d6"></path><path d="M643.9 600L774.4 600L638.9 490Z" fill="#94dedc" stroke="#94dedc"></path><path d="M900 366L900 227L776.4 344Z" fill="#ffffff" stroke="#ffffff"></path><path d="M900 366L776.4 344L774.4 465Z" fill="#eefaf9" stroke="#eefaf9"></path><path d="M776.4 344L900 227L769.4 259Z" fill="#7fd9d6" stroke="#7fd9d6"></path><path d="M776.4 97L900 0L747.4 0Z" fill="#cbefee" stroke="#cbefee"></path><path d="M900 497L900 366L774.4 465Z" fill="#eefaf9" stroke="#eefaf9"></path><path d="M0 374L0 465L129.6 375Z" fill="#94dedc" stroke="#94dedc"></path><path d="M0 0L0 124L109.6 128Z" fill="#94dedc" stroke="#94dedc"></path><path d="M900 227L900 117L776.4 97Z" fill="#ffffff" stroke="#ffffff"></path><path d="M774.4 600L900 497L774.4 465Z" fill="#4dcdcb" stroke="#4dcdcb"></path><path d="M115.6 0L0 0L109.6 128Z" fill="#7fd9d6" stroke="#7fd9d6"></path><path d="M0 465L0 600L125.6 600Z" fill="#eefaf9" stroke="#eefaf9"></path><path d="M900 117L900 0L776.4 97Z" fill="#94dedc" stroke="#94dedc"></path><path d="M774.4 600L900 600L900 497Z" fill="#baeae8" stroke="#baeae8"></path></g></svg>