<svg id="visual" viewBox="0 0 1200 600" width="1200" height="600" xmlns="http://www.w3.org/2000/svg" xmlns:xlink="http://www.w3.org/1999/xlink" version="1.1"><rect x="0" y="0" width="1200" height="600" fill="#FFFFFF"></rect><g transform="translate(1158.7783042027213 65.49551670858003)"><path d="M314.7 -448.3C393.5 -375.9 433.1 -264.7 481.1 -148.8C529.1 -32.9 585.5 87.9 529.5 144.7C473.4 201.6 304.9 194.7 197.9 230.7C90.9 266.8 45.5 345.9 -23.1 377.7C-91.7 409.5 -183.4 394.1 -274.8 353C-366.3 311.8 -457.5 245.1 -469.1 163.3C-480.6 81.6 -412.4 -15.1 -337.5 -67.6C-262.6 -120.1 -180.9 -128.3 -123.5 -207.7C-66.1 -287 -33.1 -437.5 42.4 -495.9C117.9 -554.3 235.9 -520.7 314.7 -448.3" fill="#24c7c5"></path></g></svg>