<svg id="visual" viewBox="0 0 900 600" width="900" height="600" xmlns="http://www.w3.org/2000/svg" xmlns:xlink="http://www.w3.org/1999/xlink" version="1.1"><rect x="0" y="0" width="900" height="600" fill="#ffffff"></rect><path d="M0 353L21.5 353.2C43 353.3 86 353.7 128.8 363.7C171.7 373.7 214.3 393.3 257.2 405C300 416.7 343 420.3 385.8 421.8C428.7 423.3 471.3 422.7 514.2 415.3C557 408 600 394 642.8 395.8C685.7 397.7 728.3 415.3 771.2 423.3C814 431.3 857 429.7 878.5 428.8L900 428L900 601L878.5 601C857 601 814 601 771.2 601C728.3 601 685.7 601 642.8 601C600 601 557 601 514.2 601C471.3 601 428.7 601 385.8 601C343 601 300 601 257.2 601C214.3 601 171.7 601 128.8 601C86 601 43 601 21.5 601L0 601Z" fill="#006d6c"></path><path d="M0 439L21.5 431.3C43 423.7 86 408.3 128.8 413.2C171.7 418 214.3 443 257.2 446C300 449 343 430 385.8 426.8C428.7 423.7 471.3 436.3 514.2 447.3C557 458.3 600 467.7 642.8 463.7C685.7 459.7 728.3 442.3 771.2 429C814 415.7 857 406.3 878.5 401.7L900 397L900 601L878.5 601C857 601 814 601 771.2 601C728.3 601 685.7 601 642.8 601C600 601 557 601 514.2 601C471.3 601 428.7 601 385.8 601C343 601 300 601 257.2 601C214.3 601 171.7 601 128.8 601C86 601 43 601 21.5 601L0 601Z" fill="#088381"></path><path d="M0 489L21.5 489.2C43 489.3 86 489.7 128.8 492.5C171.7 495.3 214.3 500.7 257.2 500.3C300 500 343 494 385.8 486.5C428.7 479 471.3 470 514.2 466.3C557 462.7 600 464.3 642.8 471.7C685.7 479 728.3 492 771.2 492.3C814 492.7 857 480.3 878.5 474.2L900 468L900 601L878.5 601C857 601 814 601 771.2 601C728.3 601 685.7 601 642.8 601C600 601 557 601 514.2 601C471.3 601 428.7 601 385.8 601C343 601 300 601 257.2 601C214.3 601 171.7 601 128.8 601C86 601 43 601 21.5 601L0 601Z" fill="#129997"></path><path d="M0 485L21.5 493C43 501 86 517 128.8 520.8C171.7 524.7 214.3 516.3 257.2 508.8C300 501.3 343 494.7 385.8 491.5C428.7 488.3 471.3 488.7 514.2 493.7C557 498.7 600 508.3 642.8 512.8C685.7 517.3 728.3 516.7 771.2 514.7C814 512.7 857 509.3 878.5 507.7L900 506L900 601L878.5 601C857 601 814 601 771.2 601C728.3 601 685.7 601 642.8 601C600 601 557 601 514.2 601C471.3 601 428.7 601 385.8 601C343 601 300 601 257.2 601C214.3 601 171.7 601 128.8 601C86 601 43 601 21.5 601L0 601Z" fill="#1bb0ae"></path><path d="M0 541L21.5 543.5C43 546 86 551 128.8 551.3C171.7 551.7 214.3 547.3 257.2 543.8C300 540.3 343 537.7 385.8 541.8C428.7 546 471.3 557 514.2 555.5C557 554 600 540 642.8 539.2C685.7 538.3 728.3 550.7 771.2 557.5C814 564.3 857 565.7 878.5 566.3L900 567L900 601L878.5 601C857 601 814 601 771.2 601C728.3 601 685.7 601 642.8 601C600 601 557 601 514.2 601C471.3 601 428.7 601 385.8 601C343 601 300 601 257.2 601C214.3 601 171.7 601 128.8 601C86 601 43 601 21.5 601L0 601Z" fill="#24c7c5"></path></svg>