<svg id="visual" viewBox="0 0 900 600" width="900" height="600" xmlns="http://www.w3.org/2000/svg" xmlns:xlink="http://www.w3.org/1999/xlink" version="1.1"><rect x="0" y="0" width="900" height="600" fill="#FFFFFF"></rect><defs><linearGradient id="grad1_0" x1="33.3%" y1="100%" x2="100%" y2="0%"><stop offset="20%" stop-color="#ffffff" stop-opacity="1"></stop><stop offset="80%" stop-color="#ffffff" stop-opacity="1"></stop></linearGradient></defs><defs><linearGradient id="grad2_0" x1="0%" y1="100%" x2="66.7%" y2="0%"><stop offset="20%" stop-color="#ffffff" stop-opacity="1"></stop><stop offset="80%" stop-color="#ffffff" stop-opacity="1"></stop></linearGradient></defs><g transform="translate(900, 600)"><path d="M-351.5 0C-335.6 -40.7 -319.7 -81.4 -305.8 -126.7C-291.9 -171.9 -280.1 -221.7 -248.6 -248.6C-217.1 -275.5 -166 -279.5 -121.3 -292.9C-76.6 -306.2 -38.3 -328.9 0 -351.5L0 0Z" fill="#24c7c5"></path></g><g transform="translate(0, 0)"><path d="M351.5 0C339.7 45.1 327.8 90.3 306.7 127.1C285.7 163.8 255.4 192.2 227 227C198.6 261.8 172 303 134.5 324.8C97 346.6 48.5 349.1 0 351.5L0 0Z" fill="#24c7c5"></path></g></svg>